<svg width="22" height="22" viewBox="0 0 22 22" fill="none" xmlns="http://www.w3.org/2000/svg">
<path fill-rule="evenodd" clip-rule="evenodd" d="M11.901 1.14222C11.5603 0.877234 11.0832 0.877234 10.7425 1.14222L2.2512 7.74657C2.02138 7.92532 1.88696 8.20016 1.88696 8.49131V18.8696C1.88696 19.9117 2.73178 20.7565 3.77392 20.7565H18.8696C19.9117 20.7565 20.7565 19.9117 20.7565 18.8696V8.49131C20.7565 8.20016 20.6221 7.92532 20.3923 7.74657L11.901 1.14222ZM15.0957 18.8696H18.8696V8.95275L11.3217 3.08222L3.77392 8.95275V18.8696H7.54783V11.3217C7.54783 10.8007 7.97024 10.3783 8.49131 10.3783H14.1522C14.6732 10.3783 15.0957 10.8007 15.0957 11.3217V18.8696ZM9.43479 18.8696V12.2652H13.2087V18.8696H9.43479Z" fill="#818181"/>
</svg>
