<svg width="22" height="22" viewBox="0 0 22 22" fill="none" xmlns="http://www.w3.org/2000/svg">
<path fill-rule="evenodd" clip-rule="evenodd" d="M10.2945 21.5092L10.2923 21.5075L10.2867 21.5031L10.2668 21.4875C10.2498 21.4741 10.2253 21.4547 10.1938 21.4295C10.1308 21.3791 10.0398 21.3055 9.9248 21.2106C9.69485 21.0208 9.36851 20.7452 8.97784 20.3979C8.19775 19.7045 7.15495 18.7199 6.1092 17.558C5.06609 16.399 4.0027 15.0444 3.19595 13.6102C2.3939 12.1843 1.80835 10.6143 1.80835 9.04167C1.80835 6.64367 2.76095 4.34388 4.45659 2.64824C6.15223 0.952601 8.45202 0 10.85 0C13.248 0 15.5478 0.952601 17.2434 2.64824C18.9391 4.34388 19.8917 6.64367 19.8917 9.04167C19.8917 10.6143 19.3061 12.1843 18.5041 13.6102C17.6973 15.0444 16.6339 16.399 15.5908 17.558C14.5451 18.7199 13.5023 19.7045 12.7222 20.3979C12.3315 20.7452 12.0052 21.0208 11.7752 21.2106C11.6602 21.3055 11.5692 21.3791 11.5062 21.4295C11.4747 21.4547 11.4502 21.4741 11.4332 21.4875L11.4134 21.5031L11.4078 21.5075L11.4061 21.5088C11.4061 21.5088 11.4051 21.5095 10.85 20.7958L11.4051 21.5095C11.0786 21.7635 10.621 21.7632 10.2945 21.5092ZM10.85 20.7958L10.2945 21.5092C10.2945 21.5092 10.2949 21.5095 10.85 20.7958ZM13.5625 9.04167C13.5625 10.5397 12.3481 11.7542 10.85 11.7542C9.35194 11.7542 8.13752 10.5397 8.13752 9.04167C8.13752 7.54359 9.35194 6.32917 10.85 6.32917C12.3481 6.32917 13.5625 7.54359 13.5625 9.04167Z" fill="#FAFAFA"/>
</svg>
