<svg width="22" height="22" viewBox="0 0 22 22" fill="none" xmlns="http://www.w3.org/2000/svg">
<g clip-path="url(#clip0_39_64)">
<path d="M10.2945 21.5092C10.2945 21.5092 10.2949 21.5095 10.85 20.7958L11.4051 21.5095C11.0786 21.7635 10.621 21.7632 10.2945 21.5092Z" fill="#818181"/>
<path fill-rule="evenodd" clip-rule="evenodd" d="M10.85 5.425C8.85259 5.425 7.23335 7.04424 7.23335 9.04167C7.23335 11.0391 8.85259 12.6583 10.85 12.6583C12.8474 12.6583 14.4667 11.0391 14.4667 9.04167C14.4667 7.04424 12.8474 5.425 10.85 5.425ZM9.04168 9.04167C9.04168 8.04295 9.8513 7.23333 10.85 7.23333C11.8487 7.23333 12.6583 8.04295 12.6583 9.04167C12.6583 10.0404 11.8487 10.85 10.85 10.85C9.8513 10.85 9.04168 10.0404 9.04168 9.04167Z" fill="#818181"/>
<path fill-rule="evenodd" clip-rule="evenodd" d="M10.2945 21.5092L10.85 20.7958C11.4051 21.5095 11.4061 21.5088 11.4061 21.5088L11.4078 21.5075L11.4134 21.5031L11.4332 21.4875C11.4502 21.4741 11.4747 21.4547 11.5062 21.4295C11.5692 21.3791 11.6602 21.3055 11.7752 21.2106C12.0052 21.0208 12.3315 20.7452 12.7222 20.3979C13.5023 19.7045 14.5451 18.7199 15.5908 17.558C16.6339 16.399 17.6973 15.0444 18.5041 13.6102C19.3061 12.1843 19.8917 10.6143 19.8917 9.04167C19.8917 6.64367 18.9391 4.34388 17.2434 2.64824C15.5478 0.952601 13.248 0 10.85 0C8.45202 0 6.15223 0.952601 4.45659 2.64824C2.76095 4.34388 1.80835 6.64367 1.80835 9.04167C1.80835 10.6143 2.3939 12.1843 3.19595 13.6102C4.0027 15.0444 5.06609 16.399 6.1092 17.558C7.15495 18.7199 8.19775 19.7045 8.97784 20.3979C9.36851 20.7452 9.69485 21.0208 9.9248 21.2106C10.0398 21.3055 10.1308 21.3791 10.1938 21.4295C10.2253 21.4547 10.2498 21.4741 10.2668 21.4875L10.2867 21.5031L10.2923 21.5075L10.2945 21.5092ZM5.73528 3.92693C7.09179 2.57041 8.93162 1.80833 10.85 1.80833C12.7684 1.80833 14.6082 2.57041 15.9648 3.92693C17.3213 5.28344 18.0833 7.12327 18.0833 9.04167C18.0833 10.1815 17.6517 11.437 16.928 12.7237C16.2089 14.0019 15.238 15.2469 14.2467 16.3483C13.2581 17.4468 12.2665 18.3835 11.5208 19.0464C11.2638 19.2748 11.0367 19.4701 10.85 19.6275C10.6633 19.4701 10.4362 19.2748 10.1792 19.0464C9.43353 18.3835 8.44196 17.4468 7.45333 16.3483C6.46207 15.2469 5.49108 14.0019 4.77205 12.7237C4.04832 11.437 3.61668 10.1815 3.61668 9.04167C3.61668 7.12327 4.37876 5.28344 5.73528 3.92693Z" fill="#818181"/>
</g>
<defs>
<clipPath id="clip0_39_64">
<rect width="21.7" height="21.7" fill="white"/>
</clipPath>
</defs>
</svg>
