<svg width="153" height="50" viewBox="0 0 153 50" fill="none" xmlns="http://www.w3.org/2000/svg">
<path d="M78.1761 15.5455V33H74.5966L67.6506 22.9261H67.5398V33H63.321V15.5455H66.9517L73.821 25.6023H73.9659V15.5455H78.1761ZM87.1796 33.2472C85.8046 33.2472 84.6228 32.9659 83.6342 32.4034C82.6512 31.8352 81.8927 31.0455 81.3586 30.0341C80.8302 29.017 80.566 27.8381 80.566 26.4972C80.566 25.1506 80.8302 23.9716 81.3586 22.9602C81.8927 21.9432 82.6512 21.1534 83.6342 20.5909C84.6228 20.0227 85.8046 19.7386 87.1796 19.7386C88.5546 19.7386 89.7336 20.0227 90.7166 20.5909C91.7052 21.1534 92.4637 21.9432 92.9921 22.9602C93.5262 23.9716 93.7933 25.1506 93.7933 26.4972C93.7933 27.8381 93.5262 29.017 92.9921 30.0341C92.4637 31.0455 91.7052 31.8352 90.7166 32.4034C89.7336 32.9659 88.5546 33.2472 87.1796 33.2472ZM87.2052 30.1023C87.7052 30.1023 88.1285 29.9489 88.4751 29.642C88.8217 29.3352 89.0859 28.9091 89.2677 28.3636C89.4552 27.8182 89.5489 27.1875 89.5489 26.4716C89.5489 25.7443 89.4552 25.108 89.2677 24.5625C89.0859 24.017 88.8217 23.5909 88.4751 23.2841C88.1285 22.9773 87.7052 22.8239 87.2052 22.8239C86.6882 22.8239 86.2507 22.9773 85.8927 23.2841C85.5404 23.5909 85.2705 24.017 85.083 24.5625C84.9012 25.108 84.8103 25.7443 84.8103 26.4716C84.8103 27.1875 84.9012 27.8182 85.083 28.3636C85.2705 28.9091 85.5404 29.3352 85.8927 29.642C86.2507 29.9489 86.6882 30.1023 87.2052 30.1023ZM100.336 25.5341V33H96.1682V19.9091H100.131V22.3125H100.276C100.566 21.5114 101.06 20.8835 101.759 20.429C102.458 19.9688 103.29 19.7386 104.256 19.7386C105.177 19.7386 105.975 19.946 106.651 20.3608C107.333 20.7699 107.861 21.3437 108.236 22.0824C108.617 22.8153 108.805 23.6733 108.799 24.6562V33H104.631V25.4744C104.637 24.7472 104.452 24.179 104.077 23.7699C103.708 23.3608 103.194 23.1562 102.535 23.1562C102.097 23.1562 101.711 23.2528 101.376 23.446C101.046 23.6335 100.79 23.9034 100.609 24.2557C100.432 24.608 100.342 25.0341 100.336 25.5341ZM111.457 17.4205V15.5455H124.548V17.4205H119.059V33H116.946V17.4205H111.457ZM131.197 33.2727C130.015 33.2727 128.978 32.9915 128.086 32.429C127.2 31.8665 126.507 31.0795 126.007 30.0682C125.513 29.0568 125.265 27.875 125.265 26.5227C125.265 25.1591 125.513 23.9687 126.007 22.9517C126.507 21.9347 127.2 21.1449 128.086 20.5824C128.978 20.0199 130.015 19.7386 131.197 19.7386C132.379 19.7386 133.413 20.0199 134.299 20.5824C135.192 21.1449 135.885 21.9347 136.379 22.9517C136.879 23.9687 137.129 25.1591 137.129 26.5227C137.129 27.875 136.879 29.0568 136.379 30.0682C135.885 31.0795 135.192 31.8665 134.299 32.429C133.413 32.9915 132.379 33.2727 131.197 33.2727ZM131.197 31.4659C132.095 31.4659 132.834 31.2358 133.413 30.7756C133.993 30.3153 134.422 29.7102 134.7 28.9602C134.978 28.2102 135.118 27.3977 135.118 26.5227C135.118 25.6477 134.978 24.8324 134.7 24.0767C134.422 23.321 133.993 22.7102 133.413 22.2443C132.834 21.7784 132.095 21.5455 131.197 21.5455C130.299 21.5455 129.561 21.7784 128.981 22.2443C128.402 22.7102 127.973 23.321 127.694 24.0767C127.416 24.8324 127.277 25.6477 127.277 26.5227C127.277 27.3977 127.416 28.2102 127.694 28.9602C127.973 29.7102 128.402 30.3153 128.981 30.7756C129.561 31.2358 130.299 31.4659 131.197 31.4659ZM142.451 25.125V33H140.439V19.9091H142.383V21.9545H142.553C142.86 21.2898 143.326 20.7557 143.951 20.3523C144.576 19.9432 145.383 19.7386 146.371 19.7386C147.258 19.7386 148.033 19.9205 148.698 20.2841C149.363 20.642 149.88 21.1875 150.249 21.9205C150.618 22.6477 150.803 23.5682 150.803 24.6818V33H148.792V24.8182C148.792 23.7898 148.525 22.9886 147.99 22.4148C147.456 21.8352 146.723 21.5455 145.792 21.5455C145.15 21.5455 144.576 21.6847 144.07 21.9631C143.57 22.2415 143.175 22.6477 142.885 23.1818C142.596 23.7159 142.451 24.3636 142.451 25.125Z" fill="black"/>
<g clip-path="url(#clip0_67_723)">
<path fill-rule="evenodd" clip-rule="evenodd" d="M26.8213 0.746471L43.24 9.08206C45.6213 10.3262 47.1253 12.69 47.1253 15.4271V19.2838H41.1093V15.4271C41.1093 15.0538 40.8587 14.6806 40.4827 14.4318L24.064 6.09618C23.8133 5.97176 23.4373 5.97176 23.0613 6.09618L6.64267 14.4318C6.26667 14.5562 6.016 14.9294 6.016 15.4271V19.2838H0V15.4271C0 12.8144 1.504 10.3262 3.88533 9.08206L20.304 0.746471C22.3093 -0.248824 24.6907 -0.248824 26.8213 0.746471ZM28.7013 24.6335C28.7013 21.7721 26.32 19.5326 23.5627 19.5326C20.68 19.5326 18.424 21.7721 18.424 24.6335C18.424 27.495 20.8053 29.7344 23.5627 29.7344C26.32 29.7344 28.7013 27.495 28.7013 24.6335ZM40.3573 35.3329C40.7333 35.2085 40.984 34.8353 40.984 34.3376V30.4809H47V34.3376C47 36.9503 45.496 39.4385 43.1147 40.6826L26.696 49.0182C25.6933 49.5159 24.5653 49.7647 23.4373 49.7647C22.3093 49.7647 21.1813 49.5159 20.1787 49.0182L3.88533 40.6826C1.504 39.4385 0 37.0747 0 34.3376V30.4809H6.016V34.3376C6.016 34.7109 6.26667 35.0841 6.64267 35.3329L20.5547 42.3V35.3329C15.792 33.9644 12.408 29.7344 12.408 24.6335C12.408 18.5374 17.4213 13.4365 23.688 13.4365C29.8293 13.4365 34.968 18.4129 34.968 24.6335C34.968 29.7344 31.4587 34.0888 26.8213 35.3329V42.3L40.3573 35.3329Z" fill="#245AE5" fill-opacity="0.9"/>
</g>
<defs>
<clipPath id="clip0_67_723">
<rect width="47" height="49.7647" fill="white"/>
</clipPath>
</defs>
</svg>
