<svg width="22" height="22" viewBox="0 0 22 22" fill="none" xmlns="http://www.w3.org/2000/svg">
<path d="M3.61668 6.32918C3.61668 5.82983 3.21187 5.42502 2.71252 5.42502C2.21316 5.42502 1.80835 5.82983 1.80835 6.32918V18.0834C1.80835 18.563 1.99887 19.0229 2.338 19.362C2.67713 19.7012 3.13708 19.8917 3.61668 19.8917H15.3708C15.8702 19.8917 16.275 19.4869 16.275 18.9875C16.275 18.4882 15.8702 18.0834 15.3708 18.0834H3.61668V6.32918ZM18.0834 1.80835H7.23335C6.75375 1.80835 6.29379 1.99887 5.95466 2.338C5.61554 2.67713 5.42502 3.13708 5.42502 3.61668V14.4667C5.42502 14.9463 5.61554 15.4062 5.95466 15.7454C6.29379 16.0845 6.75375 16.275 7.23335 16.275H18.0834C18.563 16.275 19.0229 16.0845 19.362 15.7454C19.7012 15.4062 19.8917 14.9463 19.8917 14.4667V3.61668C19.8917 3.13708 19.7012 2.67713 19.362 2.338C19.0229 1.99887 18.563 1.80835 18.0834 1.80835ZM9.04168 13.5625H7.23335V11.7542H9.04168V13.5625ZM9.04168 9.94585H7.23335V8.13752H9.04168V9.94585ZM9.04168 6.32918H7.23335V4.52085H9.04168V6.32918ZM18.0834 13.5625H16.275V11.7542H18.0834V13.5625ZM18.0834 9.94585H16.275V8.13752H18.0834V9.94585ZM18.0834 6.32918H16.275V4.52085H18.0834V6.32918Z" fill="#FAFAFA"/>
</svg>
