<svg width="22" height="22" viewBox="0 0 22 22" fill="none" xmlns="http://www.w3.org/2000/svg">
<path fill-rule="evenodd" clip-rule="evenodd" d="M3.29867 10.2393C4.37186 10.6077 5.22676 11.5058 5.5845 12.6444L5.62296 12.7598C6.03262 13.9676 5.86626 15.2678 5.17964 16.2429C5.05463 16.4198 5.08252 16.6314 5.21426 16.7314L7.20679 18.245C7.27699 18.2979 7.34527 18.2979 7.38758 18.2931C7.43566 18.2854 7.50586 18.2595 7.5626 18.1787L7.78474 17.8633C8.44731 16.9237 9.51473 16.3439 10.6418 16.3112C11.9073 16.2852 13.044 16.8651 13.7517 17.8873L13.8652 18.0517C13.9219 18.1325 13.9912 18.1594 14.0402 18.1671C14.0825 18.1758 14.1518 18.1729 14.221 18.1191L16.203 16.6237C16.3414 16.5198 16.3722 16.2977 16.2693 16.1486L16.0193 15.788C15.375 14.8572 15.1836 13.6493 15.5077 12.5579C15.8597 11.3693 16.7549 10.4288 17.9041 10.0441L18.0974 9.97874C18.2522 9.92777 18.3359 9.73544 18.2811 9.5585L17.5243 7.1342C17.4887 7.02072 17.4156 6.96975 17.3752 6.9486C17.3175 6.91879 17.255 6.91398 17.1954 6.93417L16.8684 7.04284C15.75 7.415 14.5162 7.21305 13.569 6.50047L13.4652 6.42258C12.5651 5.74558 12.0294 4.65412 12.0333 3.50399L12.0352 3.23473C12.0352 3.10683 11.9746 3.02702 11.9381 2.99047C11.9035 2.95489 11.8448 2.91258 11.7621 2.91258L9.31279 2.90969C9.16277 2.90969 9.04064 3.05298 9.03968 3.22992L9.03872 3.46264C9.03391 4.63104 8.48674 5.7427 7.5751 6.43797L7.45105 6.53221C6.44805 7.29479 5.14022 7.5102 3.95547 7.10631C3.91027 7.09092 3.86796 7.09381 3.82757 7.11496C3.7968 7.13035 3.74102 7.16978 3.7141 7.25729L2.92844 9.75371C2.8717 9.93546 2.96498 10.1249 3.14096 10.1855L3.29867 10.2393ZM7.34816 20.2193C6.8808 20.2193 6.4269 20.0673 6.04417 19.7759L4.05164 18.2633C3.09961 17.542 2.88901 16.1544 3.5814 15.1706C3.94105 14.661 4.0151 14.0061 3.80354 13.3849L3.75065 13.2233C3.57467 12.6636 3.1727 12.229 2.67553 12.0588H2.67457L2.51782 12.0039C1.34654 11.6029 0.721469 10.3615 1.09363 9.17671L1.87833 6.68124C2.05623 6.11676 2.43993 5.66094 2.95921 5.39841C3.46696 5.14261 4.04106 5.10319 4.57766 5.28686C5.15369 5.48304 5.79318 5.37629 6.2865 5.00125L6.41055 4.90701C6.84906 4.57236 7.11352 4.02903 7.11544 3.45493L7.1164 3.22317C7.12121 1.98842 8.10689 0.986389 9.31183 0.986389H9.31568L11.765 0.989274C12.3439 0.990236 12.8901 1.21911 13.3017 1.63358C13.7277 2.06151 13.9604 2.63368 13.9585 3.24433L13.9566 3.51263C13.9546 4.05692 14.2037 4.5714 14.624 4.88682L14.7268 4.96471C15.1682 5.29648 15.7433 5.39168 16.2597 5.21858L16.5857 5.10992C17.1406 4.92528 17.731 4.97048 18.2513 5.23685C18.785 5.50996 19.1793 5.9802 19.36 6.562L20.1169 8.9863C20.4823 10.1576 19.8495 11.4212 18.7081 11.803L18.5148 11.8674C17.9609 12.0539 17.5252 12.5155 17.3512 13.1041C17.1915 13.6435 17.2839 14.2369 17.6002 14.6927L17.8503 15.0533C18.5369 16.0457 18.3176 17.4382 17.3618 18.1585L15.3798 19.6548C14.9038 20.0144 14.3201 20.1596 13.7344 20.0664C13.144 19.9712 12.6285 19.6442 12.2833 19.1461L12.1698 18.9807C11.8333 18.496 11.2947 18.2017 10.7303 18.2335C10.1648 18.2489 9.6763 18.5172 9.35703 18.971L9.13489 19.2865C8.78678 19.7798 8.27037 20.1019 7.68281 20.1943C7.5703 20.2116 7.45875 20.2193 7.34816 20.2193ZM10.6044 9.16029C9.80915 9.16029 9.16196 9.80748 9.16196 10.6028C9.16196 11.398 9.80915 12.0452 10.6044 12.0452C11.3997 12.0452 12.0469 11.398 12.0469 10.6028C12.0469 9.80748 11.3997 9.16029 10.6044 9.16029ZM10.6046 13.9685C8.7486 13.9685 7.23882 12.4587 7.23882 10.6027C7.23882 8.74676 8.7486 7.23698 10.6046 7.23698C12.4605 7.23698 13.9703 8.74676 13.9703 10.6027C13.9703 12.4587 12.4605 13.9685 10.6046 13.9685Z" fill="#818181"/>
</svg>
