<svg width="22" height="22" viewBox="0 0 22 22" fill="none" xmlns="http://www.w3.org/2000/svg">
<path d="M19.8917 9.0417V5.42503C19.8917 4.94543 19.7012 4.48548 19.362 4.14635C19.0229 3.80722 18.5629 3.6167 18.0833 3.6167H3.61668C3.13708 3.6167 2.67713 3.80722 2.338 4.14635C1.99887 4.48548 1.80835 4.94543 1.80835 5.42503V9.0417C2.28795 9.0417 2.74791 9.23222 3.08703 9.57135C3.42616 9.91048 3.61668 10.3704 3.61668 10.85C3.61668 11.3296 3.42616 11.7896 3.08703 12.1287C2.74791 12.4678 2.28795 12.6584 1.80835 12.6584V16.275C1.80835 17.2696 2.6221 18.0834 3.61668 18.0834H18.0833C19.0779 18.0834 19.8917 17.2696 19.8917 16.275V12.6584C18.8971 12.6584 18.0833 11.8446 18.0833 10.85C18.0833 9.85545 18.8971 9.0417 19.8917 9.0417ZM18.0833 7.72162C17.0074 8.34549 16.275 9.52091 16.275 10.85C16.275 12.1792 17.0074 13.3546 18.0833 13.9784V16.275H3.61668V13.9784C4.69264 13.3546 5.42502 12.1792 5.42502 10.85C5.42502 9.49378 4.70168 8.34549 3.61668 7.72162V5.42503H18.0833V7.72162ZM9.94585 13.5625H11.7542V15.3709H9.94585M9.94585 9.94587H11.7542V11.7542H9.94585M9.94585 6.3292H11.7542V8.13753H9.94585V6.3292Z" fill="#818181"/>
</svg>
