<svg width="22" height="22" viewBox="0 0 22 22" fill="none" xmlns="http://www.w3.org/2000/svg">
<path d="M11.7542 7.68545H9.94585V5.87712H11.7542V7.68545ZM11.7542 11.7542H9.94585V9.94587H11.7542V11.7542ZM11.7542 15.8229H9.94585V14.0146H11.7542V15.8229ZM19.8917 9.0417V5.42503C19.8917 4.94543 19.7012 4.48548 19.362 4.14635C19.0229 3.80722 18.5629 3.6167 18.0833 3.6167H3.61668C3.13708 3.6167 2.67713 3.80722 2.338 4.14635C1.99887 4.48548 1.80835 4.94543 1.80835 5.42503V9.0417C2.28795 9.0417 2.74791 9.23222 3.08703 9.57135C3.42616 9.91048 3.61668 10.3704 3.61668 10.85C3.61668 11.3296 3.42616 11.7896 3.08703 12.1287C2.74791 12.4678 2.28795 12.6584 1.80835 12.6584V16.275C1.80835 16.7546 1.99887 17.2146 2.338 17.5537C2.67713 17.8928 3.13708 18.0834 3.61668 18.0834H18.0833C18.5629 18.0834 19.0229 17.8928 19.362 17.5537C19.7012 17.2146 19.8917 16.7546 19.8917 16.275V12.6584C19.4121 12.6584 18.9521 12.4678 18.613 12.1287C18.2739 11.7896 18.0833 11.3296 18.0833 10.85C18.0833 10.3704 18.2739 9.91048 18.613 9.57135C18.9521 9.23222 19.4121 9.0417 19.8917 9.0417Z" fill="#FAFAFA"/>
</svg>
