<svg width="12" height="12" viewBox="0 0 12 12" fill="none" xmlns="http://www.w3.org/2000/svg">
<path d="M6.47759 0.323591C6.39316 0.126688 6.20618 0 6 0C5.79382 0 5.60684 0.126688 5.52241 0.323591L4.04775 3.76289L0.467227 4.16816C0.262239 4.19136 0.0893545 4.33836 0.0256404 4.54362C-0.0380737 4.74888 0.0192514 4.97417 0.172062 5.11907L2.8412 7.64994L2.10297 11.3397C2.06071 11.551 2.14084 11.7685 2.30764 11.8953C2.47445 12.0222 2.69686 12.0348 2.87572 11.9274L6 10.0523L9.12428 11.9274C9.30314 12.0348 9.52555 12.0222 9.69236 11.8953C9.85916 11.7685 9.93929 11.551 9.89703 11.3397L9.1588 7.64994L11.8279 5.11907C11.9807 4.97417 12.0381 4.74888 11.9744 4.54362C11.9106 4.33836 11.7378 4.19136 11.5328 4.16816L7.95225 3.76289L6.47759 0.323591Z" fill="#FDB730"/>
</svg>
