<svg width="21" height="20" viewBox="0 0 21 20" fill="none" xmlns="http://www.w3.org/2000/svg">
<path fill-rule="evenodd" clip-rule="evenodd" d="M4.0695 6.18056C4.0695 2.76713 6.83663 0 10.2501 0C13.6635 0 16.4306 2.76713 16.4306 6.18056V6.94445C16.4306 8.77828 16.6796 10.4039 17.0591 11.5423C17.2502 12.1158 17.4595 12.5198 17.6514 12.7634C17.7935 12.9437 17.8783 12.9801 17.8978 12.9862C18.3539 12.9909 18.7223 13.3622 18.7223 13.8194V13.9931C18.7223 14.4533 18.3492 14.8264 17.8889 14.8264H2.61117C2.15093 14.8264 1.77783 14.4533 1.77783 13.9931V13.8194C1.77783 13.3622 2.14617 12.9909 2.60235 12.9862C2.62181 12.9801 2.70659 12.9437 2.84868 12.7634C3.04059 12.5198 3.24987 12.1158 3.44105 11.5423C3.8205 10.4039 4.0695 8.77828 4.0695 6.94445V6.18056ZM2.59803 12.9872C2.59803 12.9872 2.59878 12.987 2.60028 12.9868L2.59897 12.9871C2.59835 12.9872 2.59803 12.9873 2.59803 12.9872Z" fill="#0D0D0D"/>
<path d="M7.95836 16.25C7.64374 16.25 7.35593 16.4272 7.21427 16.7081C7.07261 16.989 7.10125 17.3258 7.2883 17.5788C7.98173 18.5166 9.02928 19.1667 10.25 19.1667C11.4708 19.1667 12.5183 18.5166 13.2117 17.5788C13.3988 17.3258 13.4274 16.989 13.2858 16.7081C13.1441 16.4272 12.8563 16.25 12.5417 16.25H7.95836Z" fill="#0D0D0D"/>
</svg>
