<svg width="25" height="25" viewBox="0 0 25 25" fill="none" xmlns="http://www.w3.org/2000/svg">
<g opacity="0.7">
<path fill-rule="evenodd" clip-rule="evenodd" d="M10.4167 1.04169C5.23908 1.04169 1.04175 5.23902 1.04175 10.4167C1.04175 15.5944 5.23908 19.7917 10.4167 19.7917C12.6303 19.7917 14.6647 19.0245 16.2685 17.7416L21.1385 22.6116C21.5453 23.0184 22.2049 23.0184 22.6117 22.6116C23.0184 22.2048 23.0184 21.5452 22.6117 21.1384L17.7416 16.2684C19.0246 14.6646 19.7917 12.6302 19.7917 10.4167C19.7917 5.23902 15.5944 1.04169 10.4167 1.04169ZM3.12508 10.4167C3.12508 6.38961 6.38967 3.12502 10.4167 3.12502C14.4438 3.12502 17.7084 6.38961 17.7084 10.4167C17.7084 14.4438 14.4438 17.7084 10.4167 17.7084C6.38967 17.7084 3.12508 14.4438 3.12508 10.4167Z" fill="black" stroke="black" stroke-width="0.3" stroke-linecap="round" stroke-linejoin="round"/>
</g>
</svg>
